<svg width="375" height="812" viewBox="0 0 375 812" fill="none" xmlns="http://www.w3.org/2000/svg">
<g clip-path="url(#clip0_603_10233)">
<rect width="375" height="812" fill="white"/>
<g opacity="0.05">
<path d="M-4.75026 490.293L101.014 490.293L101.014 597.649C101.014 613.822 114.11 627 130.33 627L246.066 627C262.22 627 275.382 613.888 275.382 597.649L275.382 539.944L230.244 539.944L230.244 581.808L146.218 581.808L146.218 364.035L183.312 364.035L183.312 318.843L101.08 318.843L101.08 445.101L11.1377 445.101L11.1377 364.035L56.1423 364.035L56.1423 318.843L-4.68375 318.843C-20.8376 318.843 -34 331.955 -34 348.195L-34 460.942C-34 477.115 -20.9041 490.293 -4.75026 490.293Z" fill="#247CFF"/>
<path d="M146.152 229.192L230.178 229.192L230.178 445.101L192.419 445.101L192.419 490.293L275.316 490.293L275.316 364.102L363.862 364.102L363.862 445.101L319.589 445.101L319.589 490.293L379.684 490.293C395.904 490.293 409 477.115 409 460.941L409 348.195C409 332.022 395.904 318.843 379.684 318.843L275.316 318.843L275.316 213.285C275.316 197.112 262.22 183.933 245.999 183.933L130.264 183.933C114.11 183.933 100.947 197.045 100.947 213.285L100.947 273.984L146.085 273.984L146.085 229.192L146.152 229.192Z" fill="#247CFF"/>
</g>
<g clip-path="url(#clip1_603_10233)">
<path d="M120.285 392.211H103.085V374.753C103.085 372.122 100.956 369.979 98.3178 369.979H79.4967C76.8697 369.979 74.7292 372.112 74.7292 374.753V384.137H82.0696V377.329H95.7341V412.743H89.7018V420.092H103.074V399.56H117.701V412.743H110.382V420.092H120.274C122.901 420.092 125.041 417.96 125.041 415.319V396.984C125.041 394.354 122.912 392.211 120.285 392.211Z" fill="#247CFF"/>
<path d="M95.7447 434.671H82.0803V399.56H88.2206V392.211H74.7399V412.732H60.3403V399.56H67.5401V392.211H57.7674C55.1297 392.211 53 394.354 53 396.984V415.319C53 417.949 55.1297 420.092 57.7674 420.092H74.7399V437.258C74.7399 439.888 76.8696 442.031 79.5074 442.031H98.3284C100.955 442.031 103.096 439.899 103.096 437.258V427.387H95.7555V434.671H95.7447Z" fill="#247CFF"/>
</g>
<path d="M151.918 390.031C155.44 390.031 158.53 390.719 161.187 392.096C163.877 393.473 165.942 395.442 167.383 398.003C168.855 400.533 169.592 403.479 169.592 406.84C169.592 410.202 168.855 413.148 167.383 415.678C165.942 418.175 163.877 420.112 161.187 421.489C158.53 422.866 155.44 423.554 151.918 423.554H140.199V390.031H151.918ZM151.678 417.839C155.2 417.839 157.921 416.878 159.842 414.957C161.763 413.036 162.724 410.33 162.724 406.84C162.724 403.351 161.763 400.629 159.842 398.676C157.921 396.691 155.2 395.698 151.678 395.698H146.923V417.839H151.678Z" fill="#242424"/>
<path d="M186.44 423.986C183.878 423.986 181.573 423.426 179.524 422.305C177.475 421.153 175.858 419.536 174.673 417.455C173.52 415.373 172.944 412.972 172.944 410.25C172.944 407.529 173.536 405.128 174.721 403.046C175.938 400.965 177.587 399.364 179.668 398.244C181.749 397.091 184.07 396.515 186.632 396.515C189.193 396.515 191.515 397.091 193.596 398.244C195.677 399.364 197.31 400.965 198.495 403.046C199.711 405.128 200.32 407.529 200.32 410.25C200.32 412.972 199.695 415.373 198.447 417.455C197.23 419.536 195.565 421.153 193.452 422.305C191.371 423.426 189.033 423.986 186.44 423.986ZM186.44 418.127C187.656 418.127 188.793 417.839 189.85 417.262C190.938 416.654 191.803 415.758 192.443 414.573C193.084 413.388 193.404 411.947 193.404 410.25C193.404 407.721 192.731 405.784 191.387 404.439C190.074 403.062 188.457 402.374 186.536 402.374C184.615 402.374 182.998 403.062 181.685 404.439C180.404 405.784 179.764 407.721 179.764 410.25C179.764 412.78 180.388 414.733 181.637 416.11C182.918 417.455 184.519 418.127 186.44 418.127Z" fill="#242424"/>
<path d="M203.523 410.25C203.523 407.497 204.083 405.095 205.204 403.046C206.325 400.965 207.877 399.364 209.863 398.244C211.848 397.091 214.121 396.515 216.682 396.515C219.98 396.515 222.702 397.347 224.847 399.012C227.024 400.645 228.481 402.95 229.218 405.928H221.965C221.581 404.775 220.925 403.879 219.996 403.238C219.1 402.566 217.979 402.23 216.634 402.23C214.713 402.23 213.192 402.934 212.072 404.343C210.951 405.72 210.391 407.689 210.391 410.25C210.391 412.78 210.951 414.749 212.072 416.158C213.192 417.535 214.713 418.223 216.634 418.223C219.356 418.223 221.133 417.006 221.965 414.573H229.218C228.481 417.455 227.024 419.744 224.847 421.441C222.67 423.138 219.948 423.986 216.682 423.986C214.121 423.986 211.848 423.426 209.863 422.305C207.877 421.153 206.325 419.552 205.204 417.503C204.083 415.421 203.523 413.004 203.523 410.25Z" fill="#242424"/>
<path d="M232.414 410.154C232.414 407.465 232.943 405.079 233.999 402.998C235.088 400.917 236.561 399.316 238.418 398.196C240.275 397.075 242.34 396.515 244.613 396.515C246.342 396.515 247.991 396.899 249.56 397.667C251.129 398.404 252.378 399.396 253.306 400.645V388.014H260.126V423.554H253.306V419.616C252.474 420.929 251.305 421.985 249.8 422.786C248.296 423.586 246.551 423.986 244.565 423.986C242.324 423.986 240.275 423.41 238.418 422.257C236.561 421.105 235.088 419.488 233.999 417.407C232.943 415.293 232.414 412.876 232.414 410.154ZM253.354 410.25C253.354 408.618 253.034 407.225 252.394 406.072C251.754 404.887 250.889 403.991 249.8 403.383C248.712 402.742 247.543 402.422 246.294 402.422C245.046 402.422 243.893 402.726 242.836 403.334C241.78 403.943 240.915 404.839 240.243 406.024C239.603 407.177 239.282 408.553 239.282 410.154C239.282 411.755 239.603 413.164 240.243 414.381C240.915 415.565 241.78 416.478 242.836 417.118C243.925 417.759 245.078 418.079 246.294 418.079C247.543 418.079 248.712 417.775 249.8 417.166C250.889 416.526 251.754 415.63 252.394 414.477C253.034 413.292 253.354 411.883 253.354 410.25Z" fill="#242424"/>
<path d="M278.508 423.986C275.947 423.986 273.641 423.426 271.592 422.305C269.543 421.153 267.926 419.536 266.741 417.455C265.589 415.373 265.012 412.972 265.012 410.25C265.012 407.529 265.605 405.128 266.789 403.046C268.006 400.965 269.655 399.364 271.736 398.244C273.817 397.091 276.139 396.515 278.7 396.515C281.262 396.515 283.583 397.091 285.664 398.244C287.745 399.364 289.378 400.965 290.563 403.046C291.78 405.128 292.388 407.529 292.388 410.25C292.388 412.972 291.764 415.373 290.515 417.455C289.298 419.536 287.633 421.153 285.52 422.305C283.439 423.426 281.102 423.986 278.508 423.986ZM278.508 418.127C279.725 418.127 280.861 417.839 281.918 417.262C283.007 416.654 283.871 415.758 284.511 414.573C285.152 413.388 285.472 411.947 285.472 410.25C285.472 407.721 284.8 405.784 283.455 404.439C282.142 403.062 280.525 402.374 278.604 402.374C276.683 402.374 275.066 403.062 273.753 404.439C272.473 405.784 271.832 407.721 271.832 410.25C271.832 412.78 272.457 414.733 273.705 416.11C274.986 417.455 276.587 418.127 278.508 418.127Z" fill="#242424"/>
<path d="M295.591 410.25C295.591 407.497 296.152 405.095 297.272 403.046C298.393 400.965 299.946 399.364 301.931 398.244C303.916 397.091 306.189 396.515 308.751 396.515C312.049 396.515 314.77 397.347 316.915 399.012C319.093 400.645 320.549 402.95 321.286 405.928H314.034C313.65 404.775 312.993 403.879 312.065 403.238C311.168 402.566 310.047 402.23 308.703 402.23C306.782 402.23 305.261 402.934 304.14 404.343C303.019 405.72 302.459 407.689 302.459 410.25C302.459 412.78 303.019 414.749 304.14 416.158C305.261 417.535 306.782 418.223 308.703 418.223C311.424 418.223 313.201 417.006 314.034 414.573H321.286C320.549 417.455 319.093 419.744 316.915 421.441C314.738 423.138 312.017 423.986 308.751 423.986C306.189 423.986 303.916 423.426 301.931 422.305C299.946 421.153 298.393 419.552 297.272 417.503C296.152 415.421 295.591 413.004 295.591 410.25Z" fill="#242424"/>
</g>
<defs>
<clipPath id="clip0_603_10233">
<rect width="375" height="812" fill="white"/>
</clipPath>
<clipPath id="clip1_603_10233">
<rect width="72.0412" height="72.0412" fill="white" transform="translate(53 369.979)"/>
</clipPath>
</defs>
</svg>
